<?xml version="1.0" standalone="no"?>
<!DOCTYPE svg PUBLIC "-//W3C//DTD SVG 20010904//EN"
 "http://www.w3.org/TR/2001/REC-SVG-20010904/DTD/svg10.dtd">
<svg version="1.0" xmlns="http://www.w3.org/2000/svg"
 width="592.000000pt" height="592.000000pt" viewBox="0 0 592.000000 592.000000"
 preserveAspectRatio="xMidYMid meet">
<metadata>
Created by potrace 1.11, written by Peter Selinger 2001-2013
</metadata>
<g transform="translate(0.000000,592.000000) scale(0.100000,-0.100000)"
fill="#000000" stroke="none">
<path d="M2395 5916 c-5 -2 -30 -10 -55 -17 -25 -7 -71 -28 -103 -47 -53 -31
-169 -120 -192 -148 -5 -7 -56 -26 -113 -43 -171 -50 -435 -172 -580 -268 -69
-46 -236 -209 -284 -278 -125 -181 -201 -395 -192 -542 9 -158 131 -411 244
-507 32 -26 92 -56 114 -56 6 0 20 33 30 73 49 188 112 331 213 475 72 105
226 265 311 325 l53 37 -6 -212 c-7 -288 -15 -525 -20 -628 -2 -47 -7 -170
-10 -275 -6 -203 -10 -316 -21 -545 -3 -80 -8 -174 -9 -210 -11 -258 -19 -408
-24 -431 -2 -12 -302 4 -323 17 -31 20 -34 -181 -4 -311 21 -92 47 -162 59
-162 20 0 156 -15 174 -18 10 -2 33 -4 51 -4 l32 -1 -6 -82 c-11 -169 -13
-218 -21 -443 -7 -237 -9 -688 -3 -877 6 -179 31 -325 85 -495 l25 -81 70 0
c110 1 305 53 448 119 64 30 196 112 206 128 3 4 -2 30 -10 57 -8 27 -17 63
-20 79 -2 17 -9 55 -14 85 -12 70 -20 127 -24 176 -17 178 -21 227 -32 494 -3
85 -8 180 -10 210 -8 126 -13 620 -6 624 4 2 27 7 52 10 25 3 54 8 65 10 11 2
43 7 70 10 28 4 57 9 65 11 8 2 29 7 46 9 41 7 256 63 287 75 23 9 26 6 45
-42 169 -430 188 -485 317 -882 167 -517 292 -790 463 -1010 63 -82 85 -105
180 -187 42 -37 153 -92 227 -113 167 -48 455 -12 611 76 60 34 197 171 183
183 -2 2 -31 11 -64 21 -400 114 -817 702 -1117 1575 -27 80 -94 258 -149 396
-54 137 -99 255 -99 261 0 6 19 23 43 38 466 307 790 831 845 1367 14 143 7
434 -13 539 -3 13 -10 51 -16 84 -35 193 -159 449 -297 615 -165 198 -400 366
-648 464 -89 35 -296 92 -364 101 -19 2 -46 7 -59 9 -87 19 -334 25 -498 14
l-72 -5 -7 45 c-8 54 -47 100 -89 107 -16 2 -34 3 -40 1z m401 -759 c12 -3 39
-8 60 -11 111 -18 303 -86 399 -144 186 -111 309 -246 406 -447 81 -169 104
-283 104 -520 0 -145 -5 -211 -21 -315 -19 -116 -103 -330 -165 -420 -168
-244 -351 -392 -604 -490 -86 -33 -298 -89 -435 -115 -47 -9 -93 -17 -102 -19
-16 -4 -17 18 -13 318 8 575 16 989 20 1081 2 50 6 236 9 415 10 515 18 659
37 671 12 7 270 4 305 -4z"/>
</g>
</svg>
